<?xml version="1.0" encoding="UTF-8"?>
<svg width="100px" height="150px" viewBox="0 0 100 150" version="1.1" xmlns="http://www.w3.org/2000/svg" xmlns:xlink="http://www.w3.org/1999/xlink">
    <title>logo/icon</title>
    <g id="logo/icon" stroke="none" stroke-width="1" fill="none" fill-rule="evenodd">
        <path d="M55.2624797,100.247032 L55.2624797,99.7206532 C82.208394,96.8681258 101.978177,73.0703065 99.8420187,46.0581603 C97.7058608,19.0460141 74.4412805,-1.3485883 47.3819441,0.0696941612 C20.3226077,1.48797662 -0.682437894,24.2029181 0.0169693839,51.2903698 C0.716376662,78.3778215 22.8656668,99.9785032 49.9621392,99.9984642 L49.9621392,99.9984642 C50.0628137,126.874346 71.8784452,148.60807 98.7545151,148.60807 L98.7545151,100.247032 L55.2624797,100.247032 Z M33.2642372,50.0509795 C33.2612816,43.2966448 37.3277189,37.205741 43.567062,34.6189197 C49.8064051,32.0320983 56.9896685,33.4588946 61.7667505,38.2338851 C66.5438325,43.0088756 67.9737744,50.1915135 65.3896857,56.4319888 C62.8055969,62.6724641 56.7164746,66.7415706 49.9621392,66.7415706 C45.5342531,66.7435085 41.2870579,64.985897 38.1553838,61.855594 C35.0237097,58.7252911 33.2642372,54.478866 33.2642372,50.0509795" id="Shape" fill="#000000"></path>
    </g>
</svg>